<svg width="152" height="344" viewBox="0 0 152 344" fill="none" xmlns="http://www.w3.org/2000/svg">
<path opacity="0.15" d="M131.062 320.534C143.077 322.098 138.598 328.781 124.451 330.558C117.626 331.411 50.8702 329.065 39.6376 328.283C20.9403 326.933 24.9214 320.25 29.187 318.401C40.2774 313.567 54.3537 318.615 76.7478 318.828C105.753 319.041 116.275 318.615 131.062 320.534Z" fill="#001177"/>
<path d="M46.8178 302.903C46.3202 305.392 50.9412 307.24 54.4247 308.164C57.9082 309.088 65.0174 310.155 64.8042 307.453C64.662 304.823 63.4534 297.145 63.4534 297.145L50.5146 295.652L46.8178 302.903Z" fill="#2B2E3A"/>
<path d="M53.5005 292.239C53.9981 291.742 63.0268 293.875 64.3776 295.083C64.3776 295.083 60.3964 307.169 60.3964 311.434C60.3964 311.434 58.6191 312.288 53.3583 311.079C48.4529 309.941 43.2632 314.207 44.685 311.79C45.3248 311.577 49.3771 305.96 50.088 305.818C52.9317 300.557 52.9317 292.808 53.5005 292.239Z" fill="#57617F"/>
<path d="M59.1168 222.782C59.1168 222.782 53.0029 253.068 52.5053 258.328C52.292 260.532 46.8179 302.903 46.8179 302.903C46.8179 302.903 56.4864 299.135 64.8042 307.453L72.4111 269.134C75.6103 257.191 77.5298 245.745 83.5726 235.223C83.5015 235.223 74.2595 217.095 59.1168 222.782Z" fill="#474E64"/>
<path d="M115.422 301.766C115.422 301.766 117.484 306.244 117.839 308.591C118.123 310.937 117.697 315.771 116.417 318.259C116.417 318.259 120.114 319.823 122.744 318.686C126.654 316.979 127.437 309.017 128.503 305.249C129.64 301.126 127.934 298.993 127.934 298.993C127.934 298.993 123.882 296.292 122.744 294.017L115.422 301.766Z" fill="#57617F"/>
<path d="M130.991 313.14L132.271 313.567C132.271 313.567 136.465 307.737 135.754 303.969L133.408 302.405L130.991 313.14Z" fill="#31374C"/>
<path d="M126.939 297.358C129.783 298.211 132.2 300.415 134.191 302.903C134.901 304.752 132.698 309.87 131.631 311.932C129.427 316.198 128.29 324.729 122.389 324.729C120.967 324.729 109.45 324.871 107.886 324.871C104.687 324.871 105.398 321.174 108.029 320.179C118.763 315.842 115.707 308.377 117.484 307.311C121.181 305.107 121.465 308.093 122.816 307.027C125.375 304.965 127.01 299.917 127.295 298.709L125.446 297.287C125.446 297.216 125.944 297.074 126.939 297.358Z" fill="#A39079"/>
<path d="M97.7199 212.118C97.7199 212.118 104.829 215.318 105.042 216.384C107.46 229.678 110.161 262.949 110.161 262.949L126.228 292.808C126.086 297.856 116.915 310.155 112.507 305.321C105.896 296.15 92.6013 273.827 91.1795 271.694C85.9897 263.589 78.5961 234.015 78.5961 234.015C68.6432 229.963 58.6902 227.901 58.2637 227.261C59.1879 221.289 61.5339 210.981 61.5339 210.981L97.7199 212.118Z" fill="#474E64"/>
<path d="M80.6578 241.479C80.2313 240.413 79.8048 239.347 79.4493 238.209C79.0938 237.143 78.7384 236.005 78.3829 234.939L78.7384 235.294C76.8189 234.726 74.9705 234.086 73.1221 233.446C72.1979 233.09 71.2737 232.735 70.3495 232.379C69.4252 232.024 68.5011 231.597 67.6479 231.171C68.6432 231.313 69.5675 231.526 70.5628 231.811C71.5581 232.024 72.4823 232.308 73.4065 232.593C75.326 233.161 77.1743 233.73 79.0227 234.37L79.3071 234.441L79.3782 234.726C79.6626 235.863 79.8758 237 80.0891 238.067C80.3024 239.133 80.5157 240.271 80.6578 241.479Z" fill="#31374C"/>
<path d="M69.1408 213.185C69.4962 214.82 69.7806 216.455 69.9938 218.161L69.4962 217.734C70.065 217.663 70.6337 217.592 71.2024 217.592L71.7711 217.521V218.161C71.7711 219.583 71.7711 221.005 71.7711 222.427C71.7 223.848 71.629 225.27 71.4868 226.692L71.1313 226.337C72.1977 226.408 73.2641 226.479 74.2594 226.621C73.193 226.834 72.1977 226.976 71.1313 227.119L70.7759 227.19V226.763C70.7048 225.341 70.6337 223.92 70.6337 222.498C70.6337 221.076 70.6337 219.654 70.7048 218.232L71.2735 218.801C70.7048 218.801 70.136 218.801 69.5673 218.872H69.0696V218.445C68.9985 216.526 68.9986 214.891 69.1408 213.185Z" fill="#31374C"/>
<path d="M72.1269 217.023C72.9122 217.023 73.5488 216.387 73.5488 215.602C73.5488 214.816 72.9122 214.18 72.1269 214.18C71.3417 214.18 70.7051 214.816 70.7051 215.602C70.7051 216.387 71.3417 217.023 72.1269 217.023Z" fill="#31374C"/>
<path d="M53.8561 304.965C54.9225 305.534 61.3919 307.453 61.3208 308.662C61.1075 312.501 61.9606 318.401 59.1169 321.103C57.0552 323.093 53.5006 319.041 50.1593 318.828C46.889 318.544 24.6371 318.686 24.3527 310.937C24.1394 305.391 33.4526 307.169 35.7986 307.027C48.1687 306.316 46.3913 302.121 49.3772 302.192C52.1498 302.121 51.2968 303.685 53.8561 304.965Z" fill="#A39079"/>
<path d="M38.8554 311.576C32.5993 307.595 24.3526 308.519 24.2815 310.794C24.2104 317.121 41.4147 319.254 44.4717 319.894C49.9458 321.103 56.7707 323.235 58.8324 321.245C58.9035 321.174 58.9746 321.103 59.0457 321.032C59.7566 320.036 59.2589 318.685 58.0503 318.401C53.7137 317.406 48.524 317.761 38.8554 311.576Z" fill="#31374C"/>
<path d="M51.4389 317.193L47.8843 320.747L48.2397 322.454C48.2397 322.454 53.3584 324.373 57.1263 323.022C61.2496 321.601 58.7614 318.828 58.7614 318.828L51.4389 317.193Z" fill="#31374C"/>
<path d="M27.3384 153.68L32.0305 159.581L40.6326 154.96L38.2866 150.125L27.3384 153.68Z" fill="#FAC2A8"/>
<path d="M34.732 155.813C36.5093 155.102 39.1397 152.4 39.0686 151.761C38.8554 148.988 36.5804 144.722 35.3719 144.722C35.3719 144.722 34.5899 143.443 32.386 139.319C30.1821 135.267 25.7744 126.238 23.4283 124.888C21.3667 125.314 22.3619 129.651 23.2151 130.931C24.0682 132.21 26.983 138.893 26.4853 139.746C25.9877 140.599 18.9495 135.267 15.8215 131.428C13.6176 128.656 13.5465 133.845 14.8973 135.623C16.1769 137.4 22.5041 143.158 22.5041 143.158C22.5041 143.158 17.03 143.656 16.9589 145.718C16.8167 148.135 17.3855 152.187 20.6557 151.618C21.0112 152.969 22.5041 155.528 24.1393 156.311C25.7744 157.093 26.272 157.164 26.983 157.164C28.9025 157.093 32.8836 156.524 34.732 155.813Z" fill="#FAC2A8"/>
<path d="M20.6553 151.476C21.5084 151.192 22.4326 150.979 23.2146 150.694C23.6411 150.552 24.0677 150.41 24.4232 150.268C24.7786 150.126 25.2763 149.912 25.5606 149.77L25.7028 150.694C25.063 150.481 24.7786 150.126 24.4232 149.77C24.0677 149.415 23.8544 148.917 23.7122 148.491C23.5701 148.064 23.499 147.566 23.4279 147.14C23.4279 146.713 23.4279 146.216 23.499 145.789C23.7122 146.216 23.8544 146.642 23.9966 146.998C24.1388 147.353 24.3521 147.78 24.5654 148.135C24.7786 148.491 24.9919 148.846 25.2763 149.059C25.4185 149.202 25.5606 149.344 25.7028 149.415C25.845 149.486 25.9872 149.628 26.1294 149.628L27.1958 150.055L26.2716 150.552C25.7739 150.837 25.3474 150.979 24.9208 151.121C24.4943 151.263 23.9966 151.334 23.57 151.405C23.1435 151.476 22.6458 151.476 22.2193 151.548C21.5795 151.548 21.0818 151.548 20.6553 151.476Z" fill="#DC918B"/>
<path d="M32.8122 141.737C34.1629 141.381 35.5137 142.021 36.8645 144.154C38.2863 146.287 38.9972 151.761 38.9972 151.761L35.5137 147.14L32.8122 146.642C32.8122 146.642 27.5513 148.206 25.7029 145.22C25.0631 144.083 29.8263 142.59 32.8122 141.737Z" fill="#F9C1A7"/>
<path d="M29.2579 153.609C29.0446 152.969 29.0446 152.187 29.1157 151.476C29.1868 150.765 29.4712 150.054 29.7555 149.415C30.0399 148.775 30.4665 148.206 30.9641 147.637C31.1774 147.353 31.4618 147.14 31.675 146.855L32.457 146.144C32.6703 145.931 33.0258 146.002 33.2391 146.215C33.4523 146.429 33.3812 146.784 33.168 146.997C32.457 147.566 31.7461 147.993 31.0352 148.49C30.3243 148.917 29.5422 149.343 28.6891 149.699C27.9071 150.054 26.9829 150.339 25.9876 150.268C25.49 150.268 24.9923 150.054 24.5658 149.77C24.3525 149.628 24.2103 149.415 23.997 149.201C23.8549 148.988 23.7127 148.704 23.7127 148.419C23.6416 147.85 23.8549 147.353 24.0681 146.926C24.2814 146.5 24.6369 146.144 24.9213 145.86C25.5611 145.22 26.272 144.722 26.9829 144.225C27.6939 143.727 28.4759 143.372 29.2579 143.016C29.6133 142.803 30.0399 142.661 30.4664 142.519C30.893 142.376 31.2485 142.234 31.675 142.163C30.893 142.447 30.1821 142.874 29.4712 143.301C28.7602 143.727 28.1204 144.225 27.4095 144.722C26.7697 145.22 26.1298 145.789 25.6322 146.358C25.1345 146.926 24.6369 147.637 24.7791 148.206C24.7791 148.348 24.8502 148.419 24.9213 148.561C24.9923 148.704 25.1345 148.846 25.2767 148.917C25.49 149.13 25.8454 149.201 26.2009 149.272C26.9118 149.343 27.6939 149.13 28.4048 148.846C29.8977 148.206 31.2485 147.211 32.5281 146.144L33.2391 146.997L32.5281 147.637C32.3149 147.85 32.1016 148.135 31.8883 148.348C31.4617 148.846 31.0352 149.343 30.6797 149.841C30.3243 150.41 30.0399 150.979 29.7555 151.547C29.4712 152.258 29.329 152.898 29.2579 153.609Z" fill="#DC918B"/>
<path d="M19.1631 143.798C19.4475 145.149 19.6607 146.358 20.0873 147.566C20.3006 148.135 20.5138 148.775 20.7271 149.344C20.9404 149.912 21.2247 150.552 21.438 151.192C20.8693 150.836 20.3006 150.339 19.9451 149.77C19.5185 149.201 19.2342 148.562 19.0209 147.922C18.8076 147.282 18.7365 146.571 18.7365 145.86C18.6654 145.149 18.8076 144.438 19.1631 143.798Z" fill="#DC918B"/>
<path d="M62.2445 142.661C60.5383 143.728 57.1259 147.495 49.9455 165.197C45.6089 161.074 43.1206 154.96 41.1301 154.32L39.7082 151.903L30.6084 158.373L32.7412 161.785C32.599 166.335 43.4761 184.25 51.4385 183.753C56.486 183.468 63.2398 169.605 63.2398 169.605L62.2445 142.661Z" fill="#EDE9D9"/>
<path d="M101.559 140.244C101.559 140.244 97.7911 138.893 91.6061 137.614C88.8335 137.045 84.9945 135.907 81.5109 136.618C76.5345 137.685 65.7284 140.884 62.1738 142.661C58.6192 152.045 59.4723 167.828 59.259 185.672C59.1879 193.705 57.7661 207.568 59.4723 215.531L106.82 215.389C110.659 201.739 108.81 161.501 101.559 140.244Z" fill="#EDE9D9"/>
<path d="M59.5436 214.18L59.0459 220.08C59.0459 220.08 76.5346 222.569 107.318 221.005L106.891 214.18H59.5436Z" fill="#EDE9D9"/>
<path d="M78.7383 212.545C78.7383 212.545 78.1696 216.526 78.5961 217.024C79.6625 218.161 106.251 217.592 107.744 216.526C109.237 215.46 108.028 212.189 108.028 212.189L78.7383 212.545Z" fill="#6682A3"/>
<path d="M89.0465 141.239C89.0465 141.239 85.9895 144.012 83.9278 147.993C82.2216 151.263 81.5107 156.098 81.0841 160.505C80.0178 171.951 78.667 212.545 78.667 212.545C78.667 212.545 89.6863 214.82 107.957 212.189L109.663 160.434L107.673 142.235C107.886 140.457 100.777 137.543 92.1035 137.685L89.0465 141.239Z" fill="#86A5BF"/>
<path d="M64.5194 141.737C64.5194 141.737 64.3061 140.955 62.5999 141.381C60.8937 141.808 56.9836 153.538 58.6898 156.097C60.396 158.728 64.5194 141.737 64.5194 141.737Z" fill="#6682A3"/>
<path d="M55.6331 211.194C55.6331 211.194 54.78 214.677 55.6331 215.53C56.4862 216.384 67.3633 217.663 68.0031 216.81C68.6429 215.957 68.2164 212.331 68.2164 212.331L55.6331 211.194Z" fill="#6682A3"/>
<path d="M73.8328 138.324C73.8328 138.324 68.6431 152.614 68.2165 162.567C67.7899 172.52 68.2165 212.26 68.2165 212.26C68.2165 212.26 61.2495 212.829 55.6332 211.123C53.6426 210.625 53.5004 195.198 55.2066 192.923C55.2066 192.923 54.2824 189.795 54.3535 185.103C54.4246 181.619 54.7801 175.577 56.0597 175.15C56.0597 175.15 55.6332 173.87 56.0597 168.183C56.4863 162.496 57.766 160.363 57.766 160.363C57.766 160.363 56.9128 152.969 60.6097 148.704L63.6666 141.95C66.3681 140.457 69.7805 139.248 73.8328 138.324Z" fill="#86A5BF"/>
<path d="M75.3967 132.566C75.3967 132.566 67.6477 135.836 68.3586 137.756C68.9984 139.675 70.9179 147.637 70.9179 147.637C70.9179 147.637 72.7663 141.097 73.6905 140.102C74.7569 138.964 76.1787 137.969 76.1787 137.969L75.3967 132.566Z" fill="#6682A3"/>
<path d="M90.7529 136.12L90.824 124.888L74.686 129.082L74.7571 138.253C74.7571 138.253 74.686 138.893 74.8282 139.817C75.8946 140.101 76.961 140.315 78.0985 140.315C81.582 140.386 86.7006 138.182 90.7529 136.12Z" fill="#CE8C86"/>
<path d="M78.1696 140.315C77.0322 140.315 75.8947 140.101 74.8994 139.817C75.1127 141.026 75.6103 142.732 77.1744 143.727C87.625 142.092 90.753 137.329 90.753 137.329V135.978C86.7007 138.182 81.5821 140.386 78.1696 140.315Z" fill="#F9C1A7"/>
<path d="M93.0988 130.504C92.1035 129.082 89.6152 131.784 87.5536 133.064C84.7099 134.912 82.506 135.41 82.7904 136.405C83.0747 137.4 83.9989 147.993 83.9989 147.993L92.8855 137.685C92.8144 137.756 93.3831 131.002 93.0988 130.504Z" fill="#6682A3"/>
<path d="M43.4766 45.1931L39.9931 58.5584C31.3909 66.2364 40.5619 71.4972 40.5619 71.4972C40.5619 71.4972 29.2582 87.5641 47.6711 94.7444C47.6711 94.7444 55.8467 43.4158 43.4766 45.1931Z" fill="#31374C"/>
<path d="M50.1591 92.5407C50.1591 92.5407 46.9599 82.0901 40.135 86.6401C33.3102 91.19 41.628 108.608 51.7942 105.835C51.7942 105.906 53.4293 101.996 50.1591 92.5407Z" fill="#E6A696"/>
<path d="M41.415 94.3891C41.2728 93.7492 41.2017 93.1094 41.2017 92.3985C41.2017 91.7586 41.2728 91.0477 41.5571 90.4079C41.8415 89.768 42.3391 89.1993 43.1212 88.986C43.4766 88.8438 43.9032 88.8438 44.2587 88.986C44.6141 89.0571 44.9696 89.3415 45.2539 89.5548C45.8227 90.0524 46.1781 90.6212 46.5336 91.1899C46.889 91.7586 47.1734 92.3985 47.3867 93.0383C47.8844 94.318 48.2398 95.5976 48.5242 96.8773L48.5953 97.0906L48.382 97.1617C47.6711 97.3749 46.9601 97.7304 46.5336 98.228C46.107 98.7257 45.9648 99.5077 46.1781 100.148C46.3914 100.858 46.818 101.498 47.2445 102.067C47.6711 102.636 48.2398 103.205 48.8086 103.773C48.2398 103.276 47.6 102.778 47.1024 102.209C46.818 101.925 46.6047 101.64 46.3914 101.285C46.2493 101.143 46.1781 100.93 46.1071 100.787C46.036 100.645 45.8938 100.432 45.8938 100.219C45.8227 100.005 45.7516 99.8632 45.7516 99.6499C45.7516 99.4366 45.6805 99.2233 45.7516 99.0101C45.8227 98.5835 45.9649 98.1569 46.2492 97.8726C46.7469 97.2327 47.5289 96.8062 48.3109 96.5929L48.0976 96.8773C47.8133 95.5976 47.3867 94.318 46.9602 93.1094C46.7469 92.4696 46.4625 91.9008 46.1781 91.3321C45.8938 90.7633 45.5383 90.1946 45.0407 89.768C44.543 89.3415 43.9743 89.1282 43.4055 89.2704C42.7657 89.4126 42.3391 89.8391 42.0548 90.4079C41.3439 91.6875 41.2728 93.0383 41.415 94.3891Z" fill="#C78684"/>
<path d="M46.107 50.3829C42.6945 62.753 47.5999 118.987 50.6569 123.324C53.7849 127.731 69.3542 135.552 78.2407 134.414C87.6249 133.205 103.123 122.968 105.682 119.271C107.104 117.281 110.09 101.001 111.512 84.0807C112.792 69.5778 122.531 54.6484 121.038 48.89C121.038 48.89 77.8852 30.6903 46.107 50.3829Z" fill="#F9C1A7"/>
<g opacity="0.2">
<g opacity="0.2">
<path opacity="0.2" d="M86.7717 85.858C87.2694 87.1377 89.8287 87.2799 92.388 86.2135C94.9473 85.1471 96.5825 83.2987 96.0848 82.019C95.5872 80.7394 93.0279 80.5972 90.4685 81.6636C87.9092 82.73 86.2741 84.5784 86.7717 85.858Z" fill="#F0808E"/>
<path opacity="0.2" d="M46.9601 85.0761C46.8179 86.2847 48.5952 87.4933 51.0124 87.7776C53.4295 88.062 55.4912 87.4222 55.6334 86.2136C55.7756 85.0761 53.9983 83.7965 51.5811 83.5121C49.2351 83.1566 47.1734 83.8676 46.9601 85.0761Z" fill="#F0808E"/>
</g>
</g>
<path d="M50.0171 67.3741C52.5765 66.3788 55.1358 66.0233 58.9037 67.8717C60.7521 69.0092 62.7427 70.1467 62.0318 67.303C60.681 62.7531 51.0835 62.3265 47.5289 67.0186C45.7516 68.9381 48.382 68.2983 50.0171 67.3741Z" fill="#31374C"/>
<path d="M89.9001 66.2365C87.1986 65.099 82.9331 65.1701 79.3073 67.2318C77.6011 68.5826 75.6816 69.8622 76.0371 66.5209C76.8902 61.2601 88.1939 60.3359 92.3883 65.7389C94.45 68.0138 91.6774 67.3029 89.9001 66.2365Z" fill="#31374C"/>
<path opacity="0.6" d="M73.7623 68.2983C73.7623 68.2983 67.8616 72.0662 61.25 71.7819C61.25 71.7819 69.0702 81.6637 61.8187 94.7447C61.8187 94.7447 70.2787 98.5837 76.3216 93.0385C76.3927 93.0385 71.4873 81.1661 73.7623 68.2983Z" fill="url(#paint0_linear)"/>
<path d="M102.839 93.1092C102.839 93.1092 107.389 73.9853 101.986 67.587C98.2888 63.2504 104.189 54.506 107.246 50.9514C107.246 50.9514 120.541 48.6053 121.252 49.103C125.588 52.5154 127.508 57.9184 117.057 85.5734L102.839 93.1092Z" fill="#31374C"/>
<path d="M61.8184 94.7443C61.8184 94.7443 70.2073 103.56 76.3212 93.0381C76.3923 93.0381 68.5721 93.1803 61.8184 94.7443Z" fill="#CE8C86"/>
<path d="M98.5728 54.2221C86.6293 57.3502 80.1599 52.8003 77.7428 46.6152C63.9508 53.6534 59.2588 46.7574 59.2588 46.7574C59.2588 46.7574 55.4909 55.715 46.9598 54.5776C45.8934 54.4354 44.1872 50.4542 44.4715 50.5253C44.4715 50.5253 41.9122 53.2268 42.9786 61.2602C43.334 63.8907 37.7178 55.5018 37.3623 55.0041C32.528 48.8191 35.6561 36.5201 39.9927 31.2593C48.0973 21.5196 66.5813 24.6477 67.4344 24.2211C67.4344 24.2211 98.9994 7.30114 113.502 41.2122C113.502 41.2122 131.773 41.1411 121.393 81.4505C120.185 86.2137 116.986 94.7448 113.929 101.925C110.374 110.172 107.53 111.949 107.53 111.949C107.53 111.949 111.796 89.1284 105.753 81.095C105.753 81.1661 96.5111 78.038 98.5728 54.2221Z" fill="#31374C"/>
<path d="M107.815 86.7112C107.815 86.7112 108.81 78.4645 116.133 80.5262C123.456 82.5879 125.091 103.276 108.739 100.574C108.668 100.503 104.403 97.6595 107.815 86.7112Z" fill="#F9C1A7"/>
<path d="M116.986 85.6449C116.133 85.2183 115.137 85.005 114.213 85.0761C113.289 85.1472 112.436 85.6449 111.938 86.4269C111.44 87.1378 111.085 88.062 110.872 88.9862C110.658 89.9104 110.587 90.8346 110.516 91.7588L110.161 91.4744C111.085 91.3323 112.009 91.3322 112.862 91.7588C113.715 92.1854 114.284 93.0385 114.355 93.8916C114.426 94.3181 114.426 94.8158 114.284 95.2423C114.142 95.6689 113.858 96.0243 113.573 96.3798C112.933 96.9485 112.08 97.304 111.227 97.5173C112.009 97.2329 112.862 96.8064 113.36 96.2376C113.644 95.9533 113.858 95.5978 113.929 95.2423C114 94.8869 114 94.4603 113.929 94.1049C113.715 93.3228 113.289 92.683 112.578 92.3275C111.867 91.9721 111.014 91.9721 110.232 92.1143L109.876 92.1854V91.8299C109.948 90.9057 110.019 89.9104 110.232 88.9862C110.445 88.062 110.801 87.0667 111.441 86.2847C112.08 85.5027 113.076 84.9339 114.071 84.9339C115.279 84.7918 116.204 85.1472 116.986 85.6449Z" fill="#C78684"/>
<path d="M79.0938 80.0999C79.1648 78.9624 79.5203 77.8249 80.1601 76.8296C80.8 75.8343 81.7242 74.839 83.0749 74.5547C83.7147 74.4125 84.4257 74.4125 85.0655 74.6258C85.7053 74.839 86.203 75.1234 86.7006 75.4789C87.6959 76.1898 88.3357 77.114 88.9045 78.1804C87.9092 77.5405 87.0561 76.9007 86.1319 76.4031C85.2077 75.9054 84.2835 75.6921 83.4304 75.9054C82.5773 76.1187 81.7953 76.6874 81.0843 77.4694C80.3734 78.1804 79.7336 79.1046 79.0938 80.0999Z" fill="#31374C"/>
<path d="M60.4675 81.0238C59.7566 80.1707 59.1167 79.3887 58.4058 78.7489C57.6949 78.109 56.9129 77.5403 56.1308 77.5403C55.4199 77.4692 54.6379 77.9669 53.8559 78.6067C53.145 79.2465 52.4341 80.0285 51.7231 80.8106C51.9364 79.7442 52.3629 78.7489 53.0739 77.8247C53.4293 77.3981 53.8559 76.9716 54.3535 76.6161C54.8512 76.2606 55.5621 76.0474 56.202 76.0474C56.9129 76.0474 57.4816 76.3317 57.9793 76.6872C58.4769 77.0427 58.9035 77.4692 59.1878 77.8958C59.8988 78.9621 60.3253 79.9574 60.4675 81.0238Z" fill="#31374C"/>
<path d="M90.2553 98.7969C90.2553 98.7969 84.9945 117.139 73.833 117.921C62.2449 118.703 60.041 103.205 60.041 103.205C60.041 103.205 70.5627 108.75 90.2553 98.7969Z" fill="#343948"/>
<path d="M90.1129 98.868C90.0418 99.0102 89.9707 99.2234 89.9707 99.3656C90.184 99.0102 90.255 98.7969 90.255 98.7969C90.184 98.868 90.184 98.868 90.1129 98.868Z" fill="#31374C"/>
<path d="M60.041 103.204C60.041 103.204 60.2543 104.839 60.8941 106.972C64.8753 108.109 76.3212 110.029 88.7624 102.991C89.6866 101.427 89.6155 100.147 89.9709 99.4361C90.042 99.2939 90.1131 99.0807 90.1131 98.9385C70.5627 108.749 60.041 103.204 60.041 103.204Z" fill="white"/>
<path d="M65.0171 114.65C66.6522 116.357 70.9888 118.063 73.9036 117.921C77.245 117.779 80.4442 115.575 83.2168 112.802C75.1122 110.029 67.6475 112.304 65.0171 114.65Z" fill="#F97A7A"/>
<path d="M57.6235 101.214C57.6235 101.498 64.875 110.598 91.037 98.4414" stroke="#CE8C86" stroke-width="1.074" stroke-miterlimit="10" stroke-linejoin="round"/>
<path d="M85.9893 97.0907C86.7713 96.8774 87.6244 96.9485 88.4775 97.0907C89.3306 97.2328 90.1126 97.5883 90.8236 98.0149C91.179 98.2281 91.4634 98.5125 91.8188 98.7969C92.1032 99.1523 92.3876 99.4367 92.6009 99.7922C93.0985 100.503 93.3118 101.285 93.454 102.138C93.0274 101.427 92.672 100.716 92.1032 100.148C91.6056 99.5789 91.0368 99.0102 90.397 98.6547C89.1173 97.8016 87.6244 97.3039 85.9893 97.0907Z" fill="#CE8C86"/>
<path d="M55.633 103.489C55.5619 102.92 55.7041 102.352 56.0595 101.854C56.415 101.356 56.8416 101.001 57.4103 100.717C57.908 100.432 58.4767 100.361 59.0454 100.29C59.3298 100.29 59.6142 100.29 59.8986 100.29C60.1829 100.29 60.4673 100.361 60.7516 100.432C60.4673 100.503 60.254 100.574 59.9696 100.646C59.6853 100.717 59.472 100.788 59.1876 100.859C58.69 101.001 58.1923 101.143 57.7658 101.428C56.8416 101.854 56.0596 102.494 55.633 103.489Z" fill="#CE8C86"/>
<path d="M60.041 103.205C60.041 103.205 62.1027 118.632 73.833 117.921C85.2788 117.21 90.2553 98.7969 90.2553 98.7969" stroke="#CE8C86" stroke-width="1.074" stroke-miterlimit="10" stroke-linejoin="round"/>
<path d="M117.555 183.824C117.555 195.483 110.517 200.53 99.7105 206.786C89.7575 212.545 75.8945 195.483 75.8945 183.824C75.8945 172.164 85.2076 162.78 96.7246 162.78C108.242 162.709 117.555 172.164 117.555 183.824Z" fill="#F97A7A"/>
<path d="M76.8898 177.354C75.6101 179.558 72.2688 181.477 70.4204 181.691L74.0461 196.051C74.0461 196.051 76.3211 196.691 78.5249 198.966C80.7288 201.241 80.7999 204.227 82.1507 205.151C83.4303 206.004 84.0701 206.146 85.2787 205.435C86.3451 204.796 86.6295 204.725 86.6295 204.725C88.1224 205.649 89.1177 206.218 89.1177 206.218C89.6153 207.782 90.2552 209.772 91.6059 210.554C93.3121 211.549 95.4449 211.265 96.5113 210.625C99.2839 208.99 101.985 204.156 101.985 204.156L103.194 201.81L107.246 201.952C107.246 201.952 107.46 202.236 108.313 202.805C109.237 203.303 112.649 201.952 113.573 200.459C114.427 198.895 117.412 191.501 117.412 186.312C117.412 181.051 76.8898 177.354 76.8898 177.354Z" fill="#F97A7A"/>
<path d="M70.4206 181.691C68.2168 181.975 66.5105 192.923 71.9136 195.909C75.3971 197.829 82.5774 191.431 80.9423 187.734C79.947 185.388 73.0511 181.335 70.4206 181.691Z" fill="#EF3F54"/>
<path d="M80.3487 177.772C80.6244 177.342 80.6068 176.839 80.3094 176.648C80.0121 176.458 79.5475 176.651 79.2717 177.081C78.996 177.51 79.0135 178.013 79.3109 178.204C79.6083 178.395 80.073 178.201 80.3487 177.772Z" fill="#2B2E3A"/>
<path d="M88.2193 182.441C88.495 182.011 88.4774 181.508 88.18 181.317C87.8826 181.126 87.418 181.32 87.1423 181.75C86.8666 182.179 86.8842 182.682 87.1816 182.873C87.4789 183.064 87.9435 182.87 88.2193 182.441Z" fill="#2B2E3A"/>
<path d="M79.8049 174.724V173.302C79.8049 173.302 79.5205 166.761 79.5205 164.628C79.5205 162.78 81.3689 162.851 83.5017 164.131C85.6344 165.411 86.7008 167.188 86.7008 167.188L79.8049 174.724Z" fill="#F97A7A"/>
<path d="M97.1514 173.231C98.431 172.378 100.137 172.094 101.701 172.449C102.128 172.52 102.483 172.662 102.839 172.804C103.052 172.876 103.194 173.018 103.407 173.089C103.55 173.16 103.763 173.302 103.976 173.444C104.332 173.729 104.616 174.155 104.829 174.582C104.972 175.008 105.043 175.506 105.043 175.933C104.972 177.639 104.261 179.061 103.479 180.411C102.697 181.691 101.772 182.971 100.706 184.037C101.417 182.686 102.128 181.407 102.697 180.056C102.981 179.416 103.265 178.705 103.479 177.994C103.692 177.283 103.834 176.643 103.834 176.004C103.834 175.364 103.621 174.795 103.194 174.511C103.123 174.44 102.981 174.368 102.839 174.226C102.697 174.155 102.554 174.013 102.412 174.013C102.128 173.871 101.772 173.729 101.488 173.586C100.066 173.16 98.6443 173.018 97.1514 173.231Z" fill="#57617F"/>
<path d="M114.64 177.283C114.64 177.283 117.697 176.785 117.91 172.946C118.124 169.463 116.773 167.614 115.138 168.61C113.503 169.605 116.204 174.084 119.19 172.804C122.034 171.595 121.678 168.325 121.678 168.325" stroke="#F97A7A" stroke-width="2.6535" stroke-miterlimit="10" stroke-linecap="round"/>
<path d="M94.4497 167.046C94.4497 167.046 97.3645 164.984 101.417 165.837" stroke="#EF3F54" stroke-width="2.6535" stroke-miterlimit="10" stroke-linecap="round"/>
<path d="M70.8471 190.577C70.5627 190.435 70.3494 190.008 70.4205 189.724L71.2736 185.316C71.3447 184.89 71.7712 184.677 72.1267 184.89C72.4111 185.032 72.6244 185.459 72.5533 185.743L71.7002 190.151C71.6291 190.577 71.2025 190.719 70.8471 190.577Z" fill="#2B2E3A"/>
<path d="M74.6151 192.71C74.3308 192.568 74.1175 192.141 74.1886 191.857L75.0417 187.449C75.1128 187.023 75.5394 186.809 75.8948 187.023C76.1792 187.165 76.3924 187.591 76.3214 187.876L75.4682 192.283C75.3971 192.71 74.9706 192.923 74.6151 192.71Z" fill="#2B2E3A"/>
<path d="M108.881 191.43C108.881 191.43 103.976 192.141 102.128 197.189C101.417 199.179 99.4262 202.094 99.8528 202.521C102.554 205.578 104.332 199.89 104.545 200.104C105.54 200.886 104.189 202.805 104.047 204.014L100.919 206.004C103.265 207.639 105.114 208.279 107.246 206.857C107.246 206.857 108.81 206.857 111.228 205.293C115.635 202.45 115.706 199.322 116.275 193.421L117.413 189.369L110.446 187.449L108.881 191.43Z" fill="#FAC2A8"/>
<path d="M104.545 200.175C104.687 199.748 104.9 199.393 105.185 199.108C105.469 198.824 105.753 198.539 106.18 198.326C106.038 198.753 105.825 199.108 105.54 199.393C105.256 199.677 104.971 199.961 104.545 200.175Z" fill="#CE8C86"/>
<path d="M107.815 207C108.313 206.502 108.668 206.004 108.952 205.436C109.095 205.151 109.166 204.867 109.237 204.511L109.45 203.516C109.592 203.872 109.592 204.227 109.592 204.582C109.592 204.938 109.521 205.293 109.379 205.649C109.095 206.289 108.526 206.857 107.815 207Z" fill="#CE8C86"/>
<path d="M109.734 206.502C110.232 206.004 110.587 205.507 110.872 204.938C111.014 204.654 111.085 204.369 111.156 204.014L111.369 203.019C111.512 203.374 111.512 203.729 111.512 204.085C111.512 204.44 111.441 204.796 111.298 205.151C111.085 205.791 110.516 206.36 109.734 206.502Z" fill="#CE8C86"/>
<path d="M111.228 205.506C111.725 205.009 112.081 204.511 112.365 203.942C112.507 203.658 112.578 203.374 112.649 203.018L112.863 202.023C113.005 202.378 113.005 202.734 113.005 203.089C113.005 203.445 112.934 203.8 112.792 204.156C112.578 204.796 112.01 205.364 111.228 205.506Z" fill="#CE8C86"/>
<path d="M114 146.358C111.654 143.514 107.815 142.234 107.815 142.234C103.763 142.234 101.986 153.68 103.407 162.282C103.407 162.282 111.228 168.325 114.214 172.306C111.939 177.852 109.806 187.52 109.806 187.52L108.953 190.862L116.702 194.061L117.91 190.506C117.91 190.506 126.157 179.558 126.797 172.235C127.295 166.121 115.351 148.064 114 146.358Z" fill="#EDE9D9"/>
<path d="M57.7661 160.434C59.1169 160.221 60.3965 160.15 61.6762 160.15C62.316 160.15 62.9558 160.15 63.6668 160.221C64.3066 160.292 64.9464 160.292 65.6573 160.434C64.3777 160.861 63.0269 161.003 61.6762 161.003C61.0364 161.003 60.3254 160.932 59.6856 160.861C59.1168 160.79 58.4059 160.719 57.7661 160.434Z" fill="#6682A3"/>
<path d="M83.146 160.505C85.7053 160.363 88.2647 160.434 90.7529 160.576C92.0326 160.647 93.3122 160.719 94.5208 160.79L98.3598 161.074C97.0801 161.358 95.8004 161.429 94.5208 161.429C93.2411 161.501 91.9615 161.429 90.6818 161.358C89.4022 161.287 88.1225 161.216 86.8428 161.074C85.6342 161.003 84.3546 160.79 83.146 160.505Z" fill="#6682A3"/>
<path d="M56.2021 175.292C56.9131 175.364 57.5529 175.506 58.1927 175.577C58.8326 175.648 59.4724 175.79 60.1122 175.861L62.0317 176.146C62.6716 176.217 63.3114 176.288 64.0223 176.501C62.6716 176.928 61.3208 176.928 59.97 176.785C59.2591 176.714 58.6193 176.501 57.9795 176.288C57.3396 176.003 56.7709 175.719 56.2021 175.292Z" fill="#6682A3"/>
<path d="M55.3486 192.994C56.0596 193.065 56.6994 193.207 57.3392 193.279C57.979 193.35 58.6189 193.492 59.2587 193.563L61.1782 193.847C61.818 193.918 62.4579 193.989 63.1688 194.203C61.818 194.629 60.4673 194.629 59.1165 194.487C58.4056 194.416 57.7658 194.203 57.1259 193.989C56.5572 193.705 55.9174 193.35 55.3486 192.994Z" fill="#6682A3"/>
<defs>
<linearGradient id="paint0_linear" x1="65.7605" y1="69.6563" x2="70.2178" y2="95.8423" gradientUnits="userSpaceOnUse">
<stop stop-color="#F9C1A7"/>
<stop offset="0.2585" stop-color="#F3B9A2"/>
<stop offset="0.6515" stop-color="#E2A495"/>
<stop offset="1" stop-color="#CE8C86"/>
</linearGradient>
</defs>
</svg>
