<svg width="320" height="448" viewBox="0 0 320 448" fill="none" xmlns="http://www.w3.org/2000/svg">
<path opacity="0.15" d="M82.4778 428C65.5778 430.2 71.8778 439.6 91.7778 442.1C101.378 443.3 195.278 440 211.078 438.9C237.378 437 231.778 427.6 225.778 425C210.178 418.2 190.378 425.3 158.878 425.6C118.078 425.9 103.278 425.3 82.4778 428Z" fill="#001177"/>
<path d="M200.978 403.2C201.678 406.7 195.178 409.3 190.278 410.6C185.378 411.9 175.378 413.4 175.678 409.6C175.878 405.9 177.578 395.1 177.578 395.1L195.778 393L200.978 403.2Z" fill="#2B2E3A"/>
<path d="M191.578 388.2C190.878 387.5 178.178 390.5 176.278 392.2C176.278 392.2 181.878 409.2 181.878 415.2C181.878 415.2 184.378 416.4 191.778 414.7C198.678 413.1 205.978 419.1 203.978 415.7C203.078 415.4 197.378 407.5 196.378 407.3C192.378 399.9 192.378 389 191.578 388.2Z" fill="#57617F"/>
<path d="M183.678 290.5C183.678 290.5 192.278 333.1 192.978 340.5C193.278 343.6 200.978 403.2 200.978 403.2C200.978 403.2 187.378 397.9 175.678 409.6L164.978 355.7C160.478 338.9 157.778 322.8 149.278 308C149.378 308 162.378 282.5 183.678 290.5Z" fill="#474E64"/>
<path d="M104.478 401.6C104.478 401.6 101.578 407.9 101.078 411.2C100.678 414.5 101.278 421.3 103.078 424.8C103.078 424.8 97.8776 427 94.1776 425.4C88.6776 423 87.5775 411.8 86.0775 406.5C84.4775 400.7 86.8776 397.7 86.8776 397.7C86.8776 397.7 92.5776 393.9 94.1776 390.7L104.478 401.6Z" fill="#57617F"/>
<path d="M82.5776 417.6L80.7776 418.2C80.7776 418.2 74.8777 410 75.8777 404.7L79.1777 402.5L82.5776 417.6Z" fill="#31374C"/>
<path d="M88.2775 395.4C84.2775 396.6 80.8775 399.7 78.0775 403.2C77.0775 405.8 80.1775 413 81.6775 415.9C84.7775 421.9 86.3775 433.9 94.6775 433.9C96.6775 433.9 112.877 434.1 115.077 434.1C119.577 434.1 118.578 428.9 114.878 427.5C99.7775 421.4 104.077 410.9 101.577 409.4C96.3775 406.3 95.9775 410.5 94.0775 409C90.4775 406.1 88.1775 399 87.7775 397.3L90.3775 395.3C90.3775 395.2 89.6775 395 88.2775 395.4Z" fill="#A39079"/>
<path d="M129.377 275.5C129.377 275.5 119.377 280 119.077 281.5C115.677 300.2 111.877 347 111.877 347L89.2774 389C89.4774 396.1 102.377 413.4 108.577 406.6C117.877 393.7 136.577 362.3 138.577 359.3C145.877 347.9 156.277 306.3 156.277 306.3C170.277 300.6 184.277 297.7 184.877 296.8C183.577 288.4 180.277 273.9 180.277 273.9L129.377 275.5Z" fill="#474E64"/>
<path d="M153.378 316.8C153.978 315.3 154.578 313.8 155.078 312.2C155.578 310.7 156.078 309.1 156.578 307.6L156.078 308.1C158.778 307.3 161.378 306.4 163.978 305.5C165.278 305 166.578 304.5 167.878 304C169.178 303.5 170.478 302.9 171.678 302.3C170.278 302.5 168.978 302.8 167.578 303.2C166.178 303.5 164.878 303.9 163.578 304.3C160.878 305.1 158.278 305.9 155.678 306.8L155.278 306.9L155.178 307.3C154.778 308.9 154.478 310.5 154.178 312C153.878 313.5 153.578 315.1 153.378 316.8Z" fill="#31374C"/>
<path d="M169.577 277C169.077 279.3 168.678 281.6 168.378 284L169.077 283.4C168.277 283.3 167.477 283.2 166.677 283.2L165.878 283.1V284C165.878 286 165.878 288 165.878 290C165.978 292 166.077 294 166.277 296L166.777 295.5C165.277 295.6 163.778 295.7 162.378 295.9C163.878 296.2 165.277 296.4 166.777 296.6L167.277 296.7V296.1C167.377 294.1 167.477 292.1 167.477 290.1C167.477 288.1 167.478 286.1 167.378 284.1L166.577 284.9C167.377 284.9 168.177 284.9 168.977 285H169.677V284.4C169.777 281.7 169.777 279.4 169.577 277Z" fill="#31374C"/>
<path d="M165.377 282.4C164.273 282.4 163.377 281.505 163.377 280.4C163.377 279.296 164.273 278.4 165.377 278.4C166.482 278.4 167.377 279.296 167.377 280.4C167.377 281.505 166.482 282.4 165.377 282.4Z" fill="#31374C"/>
<path d="M191.077 406.1C189.577 406.9 180.477 409.6 180.577 411.3C180.877 416.7 179.677 425 183.677 428.8C186.577 431.6 191.577 425.9 196.277 425.6C200.877 425.2 232.177 425.4 232.577 414.5C232.877 406.7 219.777 409.2 216.477 409C199.077 408 201.577 402.1 197.377 402.2C193.477 402.1 194.677 404.3 191.077 406.1Z" fill="#A39079"/>
<path d="M212.177 415.4C220.977 409.8 232.577 411.1 232.677 414.3C232.777 423.2 208.577 426.2 204.277 427.1C196.577 428.8 186.977 431.8 184.077 429C183.977 428.9 183.877 428.8 183.777 428.7C182.777 427.3 183.477 425.4 185.177 425C191.277 423.6 198.577 424.1 212.177 415.4Z" fill="#31374C"/>
<path d="M194.478 423.3L199.478 428.3L198.978 430.7C198.978 430.7 191.778 433.4 186.478 431.5C180.678 429.5 184.178 425.6 184.178 425.6L194.478 423.3Z" fill="#31374C"/>
<path d="M228.377 193.3L221.777 201.6L209.677 195.1L212.977 188.3L228.377 193.3Z" fill="#FAC2A8"/>
<path d="M217.978 196.3C215.478 195.3 211.778 191.5 211.878 190.6C212.178 186.7 215.378 180.7 217.078 180.7C217.078 180.7 218.178 178.9 221.278 173.1C224.378 167.4 230.578 154.7 233.878 152.8C236.778 153.4 235.378 159.5 234.178 161.3C232.978 163.1 228.878 172.5 229.578 173.7C230.278 174.9 240.178 167.4 244.578 162C247.678 158.1 247.778 165.4 245.878 167.9C244.078 170.4 235.178 178.5 235.178 178.5C235.178 178.5 242.878 179.2 242.978 182.1C243.178 185.5 242.378 191.2 237.778 190.4C237.278 192.3 235.178 195.9 232.878 197C230.578 198.1 229.878 198.2 228.878 198.2C226.178 198.1 220.578 197.3 217.978 196.3Z" fill="#FAC2A8"/>
<path d="M237.777 190.2C236.577 189.8 235.277 189.5 234.177 189.1C233.577 188.9 232.977 188.7 232.477 188.5C231.977 188.3 231.277 188 230.877 187.8L230.677 189.1C231.577 188.8 231.977 188.3 232.477 187.8C232.977 187.3 233.277 186.6 233.477 186C233.677 185.4 233.777 184.7 233.877 184.1C233.877 183.5 233.877 182.8 233.777 182.2C233.477 182.8 233.277 183.4 233.077 183.9C232.877 184.4 232.577 185 232.277 185.5C231.977 186 231.677 186.5 231.277 186.8C231.077 187 230.877 187.2 230.677 187.3C230.477 187.4 230.277 187.6 230.077 187.6L228.577 188.2L229.877 188.9C230.577 189.3 231.177 189.5 231.777 189.7C232.377 189.9 233.077 190 233.677 190.1C234.277 190.2 234.977 190.2 235.577 190.3C236.477 190.3 237.177 190.3 237.777 190.2Z" fill="#DC918B"/>
<path d="M220.678 176.5C218.778 176 216.878 176.9 214.978 179.9C212.978 182.9 211.978 190.6 211.978 190.6L216.878 184.1L220.678 183.4C220.678 183.4 228.078 185.6 230.678 181.4C231.578 179.8 224.878 177.7 220.678 176.5Z" fill="#F9C1A7"/>
<path d="M225.677 193.2C225.977 192.3 225.977 191.2 225.877 190.2C225.777 189.2 225.377 188.2 224.977 187.3C224.577 186.4 223.977 185.6 223.277 184.8C222.977 184.4 222.577 184.1 222.277 183.7L221.177 182.7C220.877 182.4 220.377 182.5 220.077 182.8C219.777 183.1 219.877 183.6 220.177 183.9C221.177 184.7 222.177 185.3 223.177 186C224.177 186.6 225.277 187.2 226.477 187.7C227.577 188.2 228.877 188.6 230.277 188.5C230.977 188.5 231.677 188.2 232.277 187.8C232.577 187.6 232.777 187.3 233.077 187C233.277 186.7 233.477 186.3 233.477 185.9C233.577 185.1 233.277 184.4 232.977 183.8C232.677 183.2 232.177 182.7 231.777 182.3C230.877 181.4 229.877 180.7 228.877 180C227.877 179.3 226.777 178.8 225.677 178.3C225.177 178 224.577 177.8 223.977 177.6C223.377 177.4 222.877 177.2 222.277 177.1C223.377 177.5 224.377 178.1 225.377 178.7C226.377 179.3 227.277 180 228.277 180.7C229.177 181.4 230.077 182.2 230.777 183C231.477 183.8 232.177 184.8 231.977 185.6C231.977 185.8 231.877 185.9 231.777 186.1C231.677 186.3 231.477 186.5 231.277 186.6C230.977 186.9 230.477 187 229.977 187.1C228.977 187.2 227.877 186.9 226.877 186.5C224.777 185.6 222.877 184.2 221.077 182.7L220.077 183.9L221.077 184.8C221.377 185.1 221.677 185.5 221.977 185.8C222.577 186.5 223.177 187.2 223.677 187.9C224.177 188.7 224.577 189.5 224.977 190.3C225.377 191.3 225.577 192.2 225.677 193.2Z" fill="#DC918B"/>
<path d="M239.877 179.4C239.477 181.3 239.177 183 238.577 184.7C238.277 185.5 237.977 186.4 237.677 187.2C237.377 188 236.977 188.9 236.677 189.8C237.477 189.3 238.277 188.6 238.777 187.8C239.377 187 239.777 186.1 240.077 185.2C240.377 184.3 240.477 183.3 240.477 182.3C240.577 181.3 240.377 180.3 239.877 179.4Z" fill="#DC918B"/>
<path d="M179.277 177.8C181.677 179.3 186.477 184.6 196.577 209.5C202.677 203.7 206.177 195.1 208.977 194.2L210.977 190.8L223.777 199.9L220.777 204.7C220.977 211.1 205.677 236.3 194.477 235.6C187.377 235.2 177.877 215.7 177.877 215.7L179.277 177.8Z" fill="#EDE9D9"/>
<path d="M123.977 174.4C123.977 174.4 129.277 172.5 137.977 170.7C141.877 169.9 147.277 168.3 152.177 169.3C159.177 170.8 174.377 175.3 179.377 177.8C184.377 191 183.177 213.2 183.477 238.3C183.577 249.6 185.577 269.1 183.177 280.3L116.577 280.1C111.177 260.9 113.777 204.3 123.977 174.4Z" fill="#EDE9D9"/>
<path d="M183.077 278.4L183.777 286.7C183.777 286.7 159.177 290.2 115.877 288L116.477 278.4H183.077Z" fill="#EDE9D9"/>
<path d="M156.077 276.1C156.077 276.1 156.877 281.7 156.277 282.4C154.777 284 117.377 283.2 115.277 281.7C113.177 280.2 114.877 275.6 114.877 275.6L156.077 276.1Z" fill="#6682A3"/>
<path d="M141.578 175.8C141.578 175.8 145.878 179.7 148.778 185.3C151.178 189.9 152.178 196.7 152.778 202.9C154.278 219 156.178 276.1 156.178 276.1C156.178 276.1 140.678 279.3 114.978 275.6L112.578 202.8L115.378 177.2C115.078 174.7 125.078 170.6 137.278 170.8L141.578 175.8Z" fill="#86A5BF"/>
<path d="M176.077 176.5C176.077 176.5 176.377 175.4 178.777 176C181.177 176.6 186.677 193.1 184.277 196.7C181.877 200.4 176.077 176.5 176.077 176.5Z" fill="#6682A3"/>
<path d="M188.578 274.2C188.578 274.2 189.778 279.1 188.578 280.3C187.378 281.5 172.078 283.3 171.178 282.1C170.278 280.9 170.878 275.8 170.878 275.8L188.578 274.2Z" fill="#6682A3"/>
<path d="M162.977 171.7C162.977 171.7 170.277 191.8 170.877 205.8C171.477 219.8 170.877 275.7 170.877 275.7C170.877 275.7 180.677 276.5 188.577 274.1C191.377 273.4 191.577 251.7 189.177 248.5C189.177 248.5 190.477 244.1 190.377 237.5C190.277 232.6 189.777 224.1 187.977 223.5C187.977 223.5 188.577 221.7 187.977 213.7C187.377 205.7 185.577 202.7 185.577 202.7C185.577 202.7 186.777 192.3 181.577 186.3L177.277 176.8C173.477 174.7 168.677 173 162.977 171.7Z" fill="#86A5BF"/>
<path d="M160.777 163.6C160.777 163.6 171.677 168.2 170.677 170.9C169.777 173.6 167.077 184.8 167.077 184.8C167.077 184.8 164.477 175.6 163.177 174.2C161.677 172.6 159.677 171.2 159.677 171.2L160.777 163.6Z" fill="#6682A3"/>
<path d="M139.177 168.6L139.077 152.8L161.777 158.7L161.677 171.6C161.677 171.6 161.777 172.5 161.577 173.8C160.077 174.2 158.577 174.5 156.977 174.5C152.077 174.6 144.877 171.5 139.177 168.6Z" fill="#CE8C86"/>
<path d="M156.878 174.5C158.478 174.5 160.078 174.2 161.478 173.8C161.178 175.5 160.478 177.9 158.278 179.3C143.578 177 139.178 170.3 139.178 170.3V168.4C144.878 171.5 152.078 174.6 156.878 174.5Z" fill="#F9C1A7"/>
<path d="M135.877 160.7C137.277 158.7 140.777 162.5 143.677 164.3C147.677 166.9 150.777 167.6 150.377 169C149.977 170.4 148.677 185.3 148.677 185.3L136.177 170.8C136.277 170.9 135.477 161.4 135.877 160.7Z" fill="#6682A3"/>
<path d="M205.677 40.7002L210.577 59.5002C222.677 70.3002 209.777 77.7002 209.777 77.7002C209.777 77.7002 225.677 100.3 199.777 110.4C199.777 110.4 188.277 38.2002 205.677 40.7002Z" fill="#31374C"/>
<path d="M196.277 107.3C196.277 107.3 200.777 92.6002 210.377 99.0002C219.977 105.4 208.277 129.9 193.977 126C193.977 126.1 191.677 120.6 196.277 107.3Z" fill="#E6A696"/>
<path d="M208.577 109.9C208.777 109 208.877 108.1 208.877 107.1C208.877 106.2 208.777 105.2 208.377 104.3C207.977 103.4 207.277 102.6 206.177 102.3C205.677 102.1 205.077 102.1 204.577 102.3C204.077 102.4 203.577 102.8 203.177 103.1C202.377 103.8 201.877 104.6 201.377 105.4C200.877 106.2 200.477 107.1 200.177 108C199.477 109.8 198.977 111.6 198.577 113.4L198.477 113.7L198.777 113.8C199.777 114.1 200.777 114.6 201.377 115.3C201.977 116 202.177 117.1 201.877 118C201.577 119 200.977 119.9 200.377 120.7C199.777 121.5 198.977 122.3 198.177 123.1C198.977 122.4 199.877 121.7 200.577 120.9C200.977 120.5 201.277 120.1 201.577 119.6C201.777 119.4 201.877 119.1 201.977 118.9C202.077 118.7 202.277 118.4 202.277 118.1C202.377 117.8 202.477 117.6 202.477 117.3C202.477 117 202.577 116.7 202.477 116.4C202.377 115.8 202.177 115.2 201.777 114.8C201.077 113.9 199.977 113.3 198.877 113L199.177 113.4C199.577 111.6 200.177 109.8 200.777 108.1C201.077 107.2 201.477 106.4 201.877 105.6C202.277 104.8 202.777 104 203.477 103.4C204.177 102.8 204.977 102.5 205.777 102.7C206.677 102.9 207.277 103.5 207.677 104.3C208.677 106.1 208.777 108 208.577 109.9Z" fill="#C78684"/>
<path d="M201.977 48.0003C206.777 65.4003 199.877 144.5 195.577 150.6C191.177 156.8 169.277 167.8 156.777 166.2C143.577 164.5 121.777 150.1 118.177 144.9C116.177 142.1 111.977 119.2 109.977 95.4003C108.177 75.0003 94.4774 54.0003 96.5774 45.9003C96.5774 45.9003 157.277 20.3003 201.977 48.0003Z" fill="#F9C1A7"/>
<g opacity="0.2">
<g opacity="0.2">
<path opacity="0.2" d="M144.777 97.9004C144.077 99.7004 140.478 99.9004 136.878 98.4004C133.278 96.9004 130.978 94.3004 131.678 92.5004C132.378 90.7004 135.977 90.5004 139.577 92.0004C143.177 93.5004 145.477 96.1004 144.777 97.9004Z" fill="#F0808E"/>
<path opacity="0.2" d="M200.777 96.8007C200.977 98.5007 198.477 100.201 195.077 100.601C191.677 101.001 188.777 100.101 188.577 98.4007C188.377 96.8007 190.877 95.0007 194.277 94.6007C197.577 94.1007 200.477 95.1007 200.777 96.8007Z" fill="#F0808E"/>
</g>
</g>
<path d="M196.478 71.9005C192.878 70.5005 189.278 70.0005 183.978 72.6005C181.378 74.2005 178.578 75.8005 179.578 71.8005C181.478 65.4005 194.978 64.8005 199.978 71.4005C202.478 74.1005 198.778 73.2005 196.478 71.9005Z" fill="#31374C"/>
<path d="M140.378 70.3001C144.178 68.7001 150.178 68.8001 155.278 71.7001C157.678 73.6001 160.378 75.4001 159.878 70.7001C158.678 63.3001 142.778 62.0001 136.878 69.6001C133.978 72.8001 137.878 71.8001 140.378 70.3001Z" fill="#31374C"/>
<path opacity="0.6" d="M163.078 73.2002C163.078 73.2002 171.378 78.5002 180.678 78.1002C180.678 78.1002 169.678 92.0002 179.878 110.4C179.878 110.4 167.978 115.8 159.478 108C159.378 108 166.278 91.3002 163.078 73.2002Z" fill="url(#paint0_linear)"/>
<path d="M122.178 108.1C122.178 108.1 115.778 81.2005 123.378 72.2005C128.578 66.1005 120.278 53.8005 115.978 48.8005C115.978 48.8005 97.2776 45.5005 96.2776 46.2005C90.1776 51.0005 87.4776 58.6005 102.178 97.5005L122.178 108.1Z" fill="#31374C"/>
<path d="M179.877 110.4C179.877 110.4 168.077 122.8 159.477 108C159.377 108 170.377 108.2 179.877 110.4Z" fill="#CE8C86"/>
<path d="M128.178 53.4002C144.978 57.8002 154.078 51.4002 157.478 42.7002C176.878 52.6002 183.478 42.9002 183.478 42.9002C183.478 42.9002 188.778 55.5002 200.778 53.9002C202.278 53.7002 204.678 48.1002 204.278 48.2002C204.278 48.2002 207.878 52.0002 206.378 63.3002C205.878 67.0002 213.778 55.2002 214.278 54.5002C221.078 45.8002 216.678 28.5002 210.578 21.1002C199.178 7.40022 173.178 11.8002 171.978 11.2002C171.978 11.2002 127.578 -12.5998 107.178 35.1002C107.178 35.1002 81.4777 35.0002 96.0777 91.7002C97.7777 98.4002 102.278 110.4 106.578 120.5C111.578 132.1 115.578 134.6 115.578 134.6C115.578 134.6 109.578 102.5 118.078 91.2002C118.078 91.3002 131.078 86.9002 128.178 53.4002Z" fill="#31374C"/>
<path d="M115.178 99.1C115.178 99.1 113.778 87.5 103.478 90.4C93.1777 93.3 90.8777 122.4 113.878 118.6C113.978 118.5 119.978 114.5 115.178 99.1Z" fill="#F9C1A7"/>
<path d="M102.277 97.6001C103.477 97.0001 104.877 96.7001 106.177 96.8001C107.477 96.9001 108.677 97.6001 109.377 98.7001C110.077 99.7001 110.577 101 110.877 102.3C111.177 103.6 111.277 104.9 111.377 106.2L111.877 105.8C110.577 105.6 109.277 105.6 108.077 106.2C106.877 106.8 106.077 108 105.977 109.2C105.877 109.8 105.877 110.5 106.077 111.1C106.277 111.7 106.677 112.2 107.077 112.7C107.977 113.5 109.177 114 110.377 114.3C109.277 113.9 108.077 113.3 107.377 112.5C106.977 112.1 106.677 111.6 106.577 111.1C106.477 110.6 106.477 110 106.577 109.5C106.877 108.4 107.477 107.5 108.477 107C109.477 106.5 110.677 106.5 111.777 106.7L112.277 106.8V106.3C112.177 105 112.077 103.6 111.777 102.3C111.477 101 110.977 99.6001 110.077 98.5001C109.177 97.4001 107.777 96.6001 106.377 96.6001C104.677 96.4001 103.377 96.9001 102.277 97.6001Z" fill="#C78684"/>
<path d="M155.578 89.8002C155.478 88.2002 154.978 86.6002 154.078 85.2002C153.178 83.8002 151.878 82.4002 149.978 82.0002C149.078 81.8002 148.078 81.8002 147.178 82.1002C146.278 82.4002 145.578 82.8002 144.878 83.3002C143.478 84.3002 142.578 85.6002 141.778 87.1002C143.178 86.2002 144.378 85.3002 145.678 84.6002C146.978 83.9002 148.278 83.6002 149.478 83.9002C150.678 84.2002 151.778 85.0002 152.778 86.1002C153.778 87.1002 154.678 88.4002 155.578 89.8002Z" fill="#31374C"/>
<path d="M181.778 91.1001C182.778 89.9001 183.678 88.8001 184.678 87.9001C185.678 87.0001 186.778 86.2001 187.878 86.2001C188.878 86.1001 189.978 86.8001 191.078 87.7001C192.078 88.6001 193.078 89.7001 194.078 90.8001C193.778 89.3001 193.178 87.9001 192.178 86.6001C191.678 86.0001 191.078 85.4001 190.378 84.9001C189.678 84.4001 188.678 84.1001 187.778 84.1001C186.778 84.1001 185.978 84.5001 185.278 85.0001C184.578 85.5001 183.978 86.1001 183.578 86.7001C182.578 88.2001 181.978 89.6001 181.778 91.1001Z" fill="#31374C"/>
<path d="M139.877 116.1C139.877 116.1 147.277 141.9 162.977 143C179.277 144.1 182.377 122.3 182.377 122.3C182.377 122.3 167.577 130.1 139.877 116.1Z" fill="#343948"/>
<path d="M140.077 116.2C140.177 116.4 140.277 116.7 140.277 116.9C139.977 116.4 139.877 116.1 139.877 116.1C139.977 116.2 139.977 116.2 140.077 116.2Z" fill="#31374C"/>
<path d="M182.377 122.3C182.377 122.3 182.077 124.6 181.177 127.6C175.577 129.2 159.477 131.9 141.977 122C140.677 119.8 140.777 118 140.277 117C140.177 116.8 140.077 116.5 140.077 116.3C167.577 130.1 182.377 122.3 182.377 122.3Z" fill="white"/>
<path d="M175.377 138.4C173.077 140.8 166.977 143.2 162.877 143C158.177 142.8 153.677 139.7 149.777 135.8C161.177 131.9 171.677 135.1 175.377 138.4Z" fill="#F97A7A"/>
<path d="M185.777 119.5C185.777 119.9 175.577 132.7 138.777 115.6" stroke="#CE8C86" stroke-width="1.074" stroke-miterlimit="10" stroke-linejoin="round"/>
<path d="M145.877 113.7C144.777 113.4 143.577 113.5 142.377 113.7C141.177 113.9 140.077 114.4 139.077 115C138.577 115.3 138.177 115.7 137.677 116.1C137.277 116.6 136.877 117 136.577 117.5C135.877 118.5 135.577 119.6 135.377 120.8C135.977 119.8 136.477 118.8 137.277 118C137.977 117.2 138.777 116.4 139.677 115.9C141.477 114.7 143.577 114 145.877 113.7Z" fill="#CE8C86"/>
<path d="M188.578 122.7C188.678 121.9 188.478 121.1 187.978 120.4C187.478 119.7 186.878 119.2 186.078 118.8C185.378 118.4 184.578 118.3 183.778 118.2C183.378 118.2 182.978 118.2 182.578 118.2C182.178 118.2 181.778 118.3 181.378 118.4C181.778 118.5 182.078 118.6 182.478 118.7C182.878 118.8 183.178 118.9 183.578 119C184.278 119.2 184.978 119.4 185.578 119.8C186.878 120.4 187.978 121.3 188.578 122.7Z" fill="#CE8C86"/>
<path d="M182.377 122.3C182.377 122.3 179.477 144 162.977 143C146.877 142 139.877 116.1 139.877 116.1" stroke="#CE8C86" stroke-width="1.074" stroke-miterlimit="10" stroke-linejoin="round"/>
<path d="M101.477 235.7C101.477 252.1 111.377 259.2 126.577 268C140.577 276.1 160.077 252.1 160.077 235.7C160.077 219.3 146.977 206.1 130.777 206.1C114.577 206 101.477 219.3 101.477 235.7Z" fill="#F97A7A"/>
<path d="M158.677 226.6C160.477 229.7 165.177 232.4 167.777 232.7L162.677 252.9C162.677 252.9 159.477 253.8 156.377 257C153.277 260.2 153.177 264.4 151.277 265.7C149.477 266.9 148.577 267.1 146.877 266.1C145.377 265.2 144.977 265.1 144.977 265.1C142.877 266.4 141.477 267.2 141.477 267.2C140.777 269.4 139.877 272.2 137.977 273.3C135.577 274.7 132.577 274.3 131.077 273.4C127.177 271.1 123.377 264.3 123.377 264.3L121.677 261L115.977 261.2C115.977 261.2 115.677 261.6 114.477 262.4C113.177 263.1 108.377 261.2 107.077 259.1C105.877 256.9 101.677 246.5 101.677 239.2C101.677 231.8 158.677 226.6 158.677 226.6Z" fill="#F97A7A"/>
<path d="M167.777 232.7C170.877 233.1 173.277 248.5 165.677 252.7C160.777 255.4 150.677 246.4 152.977 241.2C154.377 237.9 164.077 232.2 167.777 232.7Z" fill="#EF3F54"/>
<path d="M153.812 227.188C153.424 226.584 153.449 225.876 153.867 225.608C154.286 225.339 154.939 225.611 155.327 226.215C155.715 226.82 155.69 227.527 155.272 227.796C154.854 228.064 154.2 227.792 153.812 227.188Z" fill="#2B2E3A"/>
<path d="M142.741 233.755C142.354 233.151 142.378 232.443 142.797 232.175C143.215 231.906 143.868 232.178 144.256 232.782C144.644 233.387 144.619 234.094 144.201 234.363C143.783 234.631 143.129 234.359 142.741 233.755Z" fill="#2B2E3A"/>
<path d="M154.578 222.9V220.9C154.578 220.9 154.978 211.7 154.978 208.7C154.978 206.1 152.378 206.2 149.378 208C146.378 209.8 144.878 212.3 144.878 212.3L154.578 222.9Z" fill="#F97A7A"/>
<path d="M130.177 220.8C128.377 219.6 125.977 219.2 123.777 219.7C123.177 219.8 122.677 220 122.177 220.2C121.877 220.3 121.677 220.5 121.377 220.6C121.177 220.7 120.877 220.9 120.577 221.1C120.077 221.5 119.677 222.1 119.377 222.7C119.177 223.3 119.077 224 119.077 224.6C119.177 227 120.177 229 121.277 230.9C122.377 232.7 123.677 234.5 125.177 236C124.177 234.1 123.177 232.3 122.377 230.4C121.977 229.5 121.577 228.5 121.277 227.5C120.977 226.5 120.777 225.6 120.777 224.7C120.777 223.8 121.077 223 121.677 222.6C121.777 222.5 121.977 222.4 122.177 222.2C122.377 222.1 122.577 221.9 122.777 221.9C123.177 221.7 123.677 221.5 124.077 221.3C126.077 220.7 128.077 220.5 130.177 220.8Z" fill="#57617F"/>
<path d="M105.577 226.5C105.577 226.5 101.277 225.8 100.977 220.4C100.677 215.5 102.577 212.9 104.877 214.3C107.177 215.7 103.377 222 99.1772 220.2C95.1772 218.5 95.6772 213.9 95.6772 213.9" stroke="#F97A7A" stroke-width="2.6535" stroke-miterlimit="10" stroke-linecap="round"/>
<path d="M133.978 212.1C133.978 212.1 129.878 209.2 124.178 210.4" stroke="#EF3F54" stroke-width="2.6535" stroke-miterlimit="10" stroke-linecap="round"/>
<path d="M167.178 245.2C167.578 245 167.877 244.4 167.777 244L166.577 237.8C166.477 237.2 165.878 236.9 165.378 237.2C164.978 237.4 164.677 238 164.777 238.4L165.978 244.6C166.078 245.2 166.678 245.4 167.178 245.2Z" fill="#2B2E3A"/>
<path d="M161.878 248.2C162.278 248 162.578 247.4 162.478 247L161.278 240.8C161.178 240.2 160.578 239.9 160.078 240.2C159.678 240.4 159.378 241 159.478 241.4L160.678 247.6C160.778 248.2 161.378 248.5 161.878 248.2Z" fill="#2B2E3A"/>
<path d="M113.678 246.4C113.678 246.4 120.578 247.4 123.178 254.5C124.178 257.3 126.978 261.4 126.378 262C122.578 266.3 120.077 258.3 119.777 258.6C118.377 259.7 120.278 262.4 120.478 264.1L124.878 266.9C121.578 269.2 118.978 270.1 115.978 268.1C115.978 268.1 113.778 268.1 110.378 265.9C104.178 261.9 104.077 257.5 103.277 249.2L101.678 243.5L111.478 240.8L113.678 246.4Z" fill="#FAC2A8"/>
<path d="M119.777 258.7C119.577 258.1 119.277 257.6 118.877 257.2C118.477 256.8 118.077 256.4 117.477 256.1C117.677 256.7 117.977 257.2 118.377 257.6C118.777 258 119.177 258.4 119.777 258.7Z" fill="#CE8C86"/>
<path d="M115.178 268.3C114.478 267.6 113.978 266.9 113.578 266.1C113.378 265.7 113.278 265.3 113.178 264.8L112.878 263.4C112.678 263.9 112.678 264.4 112.678 264.9C112.678 265.4 112.778 265.9 112.978 266.4C113.378 267.3 114.178 268.1 115.178 268.3Z" fill="#CE8C86"/>
<path d="M112.478 267.6C111.778 266.9 111.278 266.2 110.878 265.4C110.678 265 110.578 264.6 110.478 264.1L110.178 262.7C109.978 263.2 109.978 263.7 109.978 264.2C109.978 264.7 110.078 265.2 110.278 265.7C110.578 266.6 111.378 267.4 112.478 267.6Z" fill="#CE8C86"/>
<path d="M110.377 266.2C109.677 265.5 109.177 264.8 108.777 264C108.577 263.6 108.477 263.2 108.377 262.7L108.077 261.3C107.877 261.8 107.877 262.3 107.877 262.8C107.877 263.3 107.977 263.8 108.177 264.3C108.477 265.2 109.277 266 110.377 266.2Z" fill="#CE8C86"/>
<path d="M106.477 183C109.777 179 115.177 177.2 115.177 177.2C120.877 177.2 123.377 193.3 121.377 205.4C121.377 205.4 110.377 213.9 106.177 219.5C109.377 227.3 112.377 240.9 112.377 240.9L113.577 245.6L102.677 250.1L100.977 245.1C100.977 245.1 89.3774 229.7 88.4774 219.4C87.7774 210.8 104.577 185.4 106.477 183Z" fill="#EDE9D9"/>
<path d="M185.578 202.8C183.678 202.5 181.878 202.4 180.078 202.4C179.178 202.4 178.278 202.4 177.278 202.5C176.378 202.6 175.478 202.6 174.478 202.8C176.278 203.4 178.178 203.6 180.078 203.6C180.978 203.6 181.978 203.5 182.878 203.4C183.678 203.3 184.678 203.2 185.578 202.8Z" fill="#6682A3"/>
<path d="M149.877 202.9C146.277 202.7 142.677 202.8 139.177 203C137.377 203.1 135.577 203.2 133.877 203.3L128.477 203.7C130.277 204.1 132.077 204.2 133.877 204.2C135.677 204.3 137.477 204.2 139.277 204.1C141.077 204 142.877 203.9 144.677 203.7C146.377 203.6 148.177 203.3 149.877 202.9Z" fill="#6682A3"/>
<path d="M187.777 223.7C186.777 223.8 185.877 224 184.977 224.1C184.077 224.2 183.177 224.4 182.277 224.5L179.577 224.9C178.677 225 177.777 225.1 176.777 225.4C178.677 226 180.577 226 182.477 225.8C183.477 225.7 184.377 225.4 185.277 225.1C186.177 224.7 186.977 224.3 187.777 223.7Z" fill="#6682A3"/>
<path d="M188.978 248.6C187.978 248.7 187.078 248.9 186.178 249C185.278 249.1 184.378 249.3 183.478 249.4L180.778 249.8C179.878 249.9 178.978 250 177.978 250.3C179.878 250.9 181.778 250.9 183.678 250.7C184.678 250.6 185.578 250.3 186.478 250C187.278 249.6 188.178 249.1 188.978 248.6Z" fill="#6682A3"/>
<defs>
<linearGradient id="paint0_linear" x1="174.333" y1="75.1103" x2="168.063" y2="111.944" gradientUnits="userSpaceOnUse">
<stop stop-color="#F9C1A7"/>
<stop offset="0.2585" stop-color="#F3B9A2"/>
<stop offset="0.6515" stop-color="#E2A495"/>
<stop offset="1" stop-color="#CE8C86"/>
</linearGradient>
</defs>
</svg>
